<svg xmlns="http://www.w3.org/2000/svg" viewBox="0 0 14 17" height="17" width="14" preserveAspectRatio="xMidYMid meet" class="" version="1.1" id="_x39_7d25ebd-827b-4b31-aacf-70732ab74202" x="0px" y="0px" enable-background="new 0 0 14 17" xml:space="preserve"><path fill="currentColor" d="M7,2.33C3.7,2.32,1.01,4.99,1,8.29C1,8.3,1,8.32,1,8.33V13c-0.02,1.09,0.85,1.98,1.94,2 c0.02,0,0.04,0,0.06,0h2V9.67H2.33V8.33c0-2.58,2.09-4.67,4.67-4.67s4.67,2.09,4.67,4.67v1.33H9v5.33h2c1.09,0.02,1.98-0.85,2-1.94 c0-0.02,0-0.04,0-0.06V8.33c0.01-3.3-2.66-5.99-5.96-6C7.03,2.33,7.01,2.33,7,2.33z"/></svg>